<svg width="54" height="53" viewBox="0 0 54 53" fill="none" xmlns="http://www.w3.org/2000/svg">
<g filter="url(#filter0_d_103_743)">
<rect x="2" width="50" height="50" rx="25" fill="#F2F2F2" shape-rendering="crispEdges"/>
<rect x="2.5" y="0.5" width="49" height="49" rx="24.5" stroke="#E6E6E6" shape-rendering="crispEdges"/>
<path d="M16.5263 12.9678C15.1242 12.9678 14 14.092 14 15.4941V28.1257C14 28.7957 14.2662 29.4383 14.7399 29.912C15.2137 30.3858 15.8563 30.652 16.5263 30.652H26.6316V36.9678L30.4211 33.1783L34.2105 36.9678V30.652H36.7368C37.4069 30.652 38.0494 30.3858 38.5232 29.912C38.997 29.4383 39.2632 28.7957 39.2632 28.1257V15.4941C39.2632 14.8241 38.997 14.1815 38.5232 13.7077C38.0494 13.2339 37.4069 12.9678 36.7368 12.9678H16.5263ZM26.6316 15.4941L30.4211 18.0204L34.2105 15.4941V19.9151L38 21.8099L34.2105 23.7046V28.1257L30.4211 25.5994L26.6316 28.1257V23.7046L22.8421 21.8099L26.6316 19.9151V15.4941ZM16.5263 15.4941H22.8421V18.0204H16.5263V15.4941ZM16.5263 20.5467H20.3158V23.073H16.5263V20.5467ZM16.5263 25.5994H22.8421V28.1257H16.5263V25.5994Z" fill="#F8393B"/>
</g>
<defs>
<filter id="filter0_d_103_743" x="0" y="-1" width="54" height="54" filterUnits="userSpaceOnUse" color-interpolation-filters="sRGB">
<feFlood flood-opacity="0" result="BackgroundImageFix"/>
<feColorMatrix in="SourceAlpha" type="matrix" values="0 0 0 0 0 0 0 0 0 0 0 0 0 0 0 0 0 0 127 0" result="hardAlpha"/>
<feOffset dy="1"/>
<feGaussianBlur stdDeviation="1"/>
<feComposite in2="hardAlpha" operator="out"/>
<feColorMatrix type="matrix" values="0 0 0 0 0.358333 0 0 0 0 0.358333 0 0 0 0 0.358333 0 0 0 0.18 0"/>
<feBlend mode="normal" in2="BackgroundImageFix" result="effect1_dropShadow_103_743"/>
<feBlend mode="normal" in="SourceGraphic" in2="effect1_dropShadow_103_743" result="shape"/>
</filter>
</defs>
</svg>
