<svg width="54" height="53" viewBox="0 0 54 53" fill="none" xmlns="http://www.w3.org/2000/svg">
<g filter="url(#filter0_d_103_757)">
<rect x="2" width="50" height="50" rx="25" fill="#F2F2F2" shape-rendering="crispEdges"/>
<rect x="2.5" y="0.5" width="49" height="49" rx="24.5" stroke="#E6E6E6" shape-rendering="crispEdges"/>
<path fill-rule="evenodd" clip-rule="evenodd" d="M28.7143 18.1106C28.7143 19.4746 28.1725 20.7827 27.208 21.7472C26.2435 22.7117 24.9354 23.2535 23.5714 23.2535C22.2075 23.2535 20.8994 22.7117 19.9349 21.7472C18.9704 20.7827 18.4286 19.4746 18.4286 18.1106C18.4286 16.7467 18.9704 15.4386 19.9349 14.4741C20.8994 13.5096 22.2075 12.9678 23.5714 12.9678C24.9354 12.9678 26.2435 13.5096 27.208 14.4741C28.1725 15.4386 28.7143 16.7467 28.7143 18.1106ZM25.3714 34.3963H15.8571C15.6298 34.3963 15.4118 34.306 15.2511 34.1453C15.0903 33.9845 15 33.7665 15 33.5392C14.9981 31.5117 15.715 29.5491 17.0234 28.0002C18.3317 26.4513 20.1468 25.4163 22.1461 25.0791C24.1454 24.742 26.1995 25.1245 27.9434 26.1587C29.6874 27.1928 31.0083 28.8117 31.6714 30.7278L31.5411 30.9163L30.5109 30.2238C29.8998 29.7828 29.1604 29.5554 28.4071 29.5769C27.6538 29.5983 26.9286 29.8673 26.3436 30.3423C25.7585 30.8173 25.3462 31.4718 25.1705 32.2046C24.9948 32.9374 25.0654 33.7077 25.3714 34.3963ZM38.7429 28.7392C38.9475 28.4664 39.0353 28.1235 38.9871 27.7859C38.9389 27.4484 38.7585 27.1438 38.4857 26.9392C38.2129 26.7346 37.87 26.6468 37.5325 26.695C37.1949 26.7432 36.8903 26.9236 36.6857 27.1963L32.1086 33.8821L29.28 31.9792C29.1449 31.8779 28.9912 31.8042 28.8277 31.7623C28.6641 31.7204 28.4939 31.7111 28.3267 31.735C28.1596 31.7589 27.9988 31.8154 27.8535 31.9014C27.7082 31.9875 27.5813 32.1013 27.48 32.2363C27.3787 32.3714 27.305 32.5251 27.2631 32.6887C27.2212 32.8522 27.2119 33.0225 27.2358 33.1896C27.2597 33.3567 27.3162 33.5176 27.4023 33.6628C27.4883 33.8081 27.6021 33.935 27.7371 34.0363L31.5943 36.7106C31.7294 36.8119 31.8831 36.8856 32.0466 36.9275C32.2102 36.9695 32.3804 36.9787 32.5475 36.9549C32.7147 36.931 32.8755 36.8744 33.0208 36.7884C33.1661 36.7024 33.293 36.5886 33.3943 36.4535L38.7429 28.7392Z" fill="#F8393B"/>
</g>
<defs>
<filter id="filter0_d_103_757" x="0" y="-1" width="54" height="54" filterUnits="userSpaceOnUse" color-interpolation-filters="sRGB">
<feFlood flood-opacity="0" result="BackgroundImageFix"/>
<feColorMatrix in="SourceAlpha" type="matrix" values="0 0 0 0 0 0 0 0 0 0 0 0 0 0 0 0 0 0 127 0" result="hardAlpha"/>
<feOffset dy="1"/>
<feGaussianBlur stdDeviation="1"/>
<feComposite in2="hardAlpha" operator="out"/>
<feColorMatrix type="matrix" values="0 0 0 0 0.358333 0 0 0 0 0.358333 0 0 0 0 0.358333 0 0 0 0.18 0"/>
<feBlend mode="normal" in2="BackgroundImageFix" result="effect1_dropShadow_103_757"/>
<feBlend mode="normal" in="SourceGraphic" in2="effect1_dropShadow_103_757" result="shape"/>
</filter>
</defs>
</svg>
