<svg width="40" height="40" viewBox="0 0 40 40" fill="none" xmlns="http://www.w3.org/2000/svg">
<rect width="40" height="40" rx="20" fill="#200164"/>
<mask id="path-2-inside-1_103_1114" fill="white">
<path d="M15.9204 10.2856H24.0804C27.189 10.2856 29.7147 12.8114 29.7147 15.9199V24.0799C29.7147 25.5742 29.1211 27.0073 28.0645 28.064C27.0078 29.1206 25.5747 29.7142 24.0804 29.7142H15.9204C12.8118 29.7142 10.2861 27.1885 10.2861 24.0799V15.9199C10.2861 14.4256 10.8797 12.9925 11.9364 11.9359C12.993 10.8793 14.4261 10.2856 15.9204 10.2856ZM15.7261 12.2285C14.7986 12.2285 13.9091 12.5969 13.2533 13.2528C12.5974 13.9086 12.229 14.7981 12.229 15.7256V24.2742C12.229 26.2074 13.793 27.7714 15.7261 27.7714H24.2747C25.2022 27.7714 26.0917 27.4029 26.7476 26.7471C27.4034 26.0912 27.7718 25.2017 27.7718 24.2742V15.7256C27.7718 13.7925 26.2078 12.2285 24.2747 12.2285H15.7261ZM25.1004 13.6856C25.4225 13.6856 25.7313 13.8136 25.959 14.0413C26.1868 14.269 26.3147 14.5779 26.3147 14.8999C26.3147 15.222 26.1868 15.5308 25.959 15.7586C25.7313 15.9863 25.4225 16.1142 25.1004 16.1142C24.7784 16.1142 24.4695 15.9863 24.2418 15.7586C24.0141 15.5308 23.8861 15.222 23.8861 14.8999C23.8861 14.5779 24.0141 14.269 24.2418 14.0413C24.4695 13.8136 24.7784 13.6856 25.1004 13.6856ZM20.0004 15.1428C21.2886 15.1428 22.524 15.6545 23.4349 16.5654C24.3458 17.4763 24.8576 18.7117 24.8576 19.9999C24.8576 21.2881 24.3458 22.5236 23.4349 23.4344C22.524 24.3453 21.2886 24.8571 20.0004 24.8571C18.7122 24.8571 17.4768 24.3453 16.5659 23.4344C15.655 22.5236 15.1433 21.2881 15.1433 19.9999C15.1433 18.7117 15.655 17.4763 16.5659 16.5654C17.4768 15.6545 18.7122 15.1428 20.0004 15.1428ZM20.0004 17.0856C19.2275 17.0856 18.4862 17.3927 17.9397 17.9392C17.3932 18.4858 17.0861 19.227 17.0861 19.9999C17.0861 20.7728 17.3932 21.5141 17.9397 22.0606C18.4862 22.6072 19.2275 22.9142 20.0004 22.9142C20.7733 22.9142 21.5146 22.6072 22.0611 22.0606C22.6077 21.5141 22.9147 20.7728 22.9147 19.9999C22.9147 19.227 22.6077 18.4858 22.0611 17.9392C21.5146 17.3927 20.7733 17.0856 20.0004 17.0856Z"/>
</mask>
<path d="M29.7147 24.0799H30.7147H29.7147ZM10.2861 15.9199H9.28613H10.2861ZM15.7261 12.2285V11.2285V12.2285ZM12.229 15.7256H11.229H12.229ZM24.8576 19.9999H23.8576H24.8576ZM20.0004 24.8571V23.8571V24.8571ZM15.9204 10.2856V11.2856H24.0804V10.2856V9.28564H15.9204V10.2856ZM24.0804 10.2856V11.2856C26.6367 11.2856 28.7147 13.3636 28.7147 15.9199H29.7147H30.7147C30.7147 12.2591 27.7413 9.28564 24.0804 9.28564V10.2856ZM29.7147 15.9199H28.7147V24.0799H29.7147H30.7147V15.9199H29.7147ZM29.7147 24.0799H28.7147C28.7147 25.309 28.2265 26.4878 27.3574 27.3569L28.0645 28.064L28.7716 28.7711C30.0157 27.5269 30.7147 25.8395 30.7147 24.0799H29.7147ZM28.0645 28.064L27.3574 27.3569C26.4883 28.226 25.3095 28.7142 24.0804 28.7142V29.7142V30.7142C25.8399 30.7142 27.5274 30.0152 28.7716 28.7711L28.0645 28.064ZM24.0804 29.7142V28.7142H15.9204V29.7142V30.7142H24.0804V29.7142ZM15.9204 29.7142V28.7142C13.3641 28.7142 11.2861 26.6362 11.2861 24.0799H10.2861H9.28613C9.28613 27.7408 12.2596 30.7142 15.9204 30.7142V29.7142ZM10.2861 24.0799H11.2861V15.9199H10.2861H9.28613V24.0799H10.2861ZM10.2861 15.9199H11.2861C11.2861 14.6908 11.7744 13.5121 12.6435 12.643L11.9364 11.9359L11.2293 11.2288C9.9851 12.473 9.28613 14.1604 9.28613 15.9199H10.2861ZM11.9364 11.9359L12.6435 12.643C13.5126 11.7739 14.6913 11.2856 15.9204 11.2856V10.2856V9.28564C14.1609 9.28564 12.4734 9.98461 11.2293 11.2288L11.9364 11.9359ZM15.7261 12.2285V11.2285C14.5334 11.2285 13.3896 11.7023 12.5462 12.5457L13.2533 13.2528L13.9604 13.9599C14.4287 13.4916 15.0638 13.2285 15.7261 13.2285V12.2285ZM13.2533 13.2528L12.5462 12.5457C11.7028 13.3891 11.229 14.5329 11.229 15.7256H12.229H13.229C13.229 15.0634 13.4921 14.4282 13.9604 13.9599L13.2533 13.2528ZM12.229 15.7256H11.229V24.2742H12.229H13.229V15.7256H12.229ZM12.229 24.2742H11.229C11.229 26.7596 13.2407 28.7714 15.7261 28.7714V27.7714V26.7714C14.3453 26.7714 13.229 25.6551 13.229 24.2742H12.229ZM15.7261 27.7714V28.7714H24.2747V27.7714V26.7714H15.7261V27.7714ZM24.2747 27.7714V28.7714C25.4674 28.7714 26.6113 28.2976 27.4547 27.4542L26.7476 26.7471L26.0405 26.04C25.5721 26.5083 24.937 26.7714 24.2747 26.7714V27.7714ZM26.7476 26.7471L27.4547 27.4542C28.298 26.6108 28.7718 25.4669 28.7718 24.2742H27.7718H26.7718C26.7718 24.9365 26.5088 25.5717 26.0405 26.04L26.7476 26.7471ZM27.7718 24.2742H28.7718V15.7256H27.7718H26.7718V24.2742H27.7718ZM27.7718 15.7256H28.7718C28.7718 13.2402 26.7601 11.2285 24.2747 11.2285V12.2285V13.2285C25.6556 13.2285 26.7718 14.3448 26.7718 15.7256H27.7718ZM24.2747 12.2285V11.2285H15.7261V12.2285V13.2285H24.2747V12.2285ZM25.1004 13.6856V14.6856C25.1573 14.6856 25.2118 14.7082 25.2519 14.7484L25.959 14.0413L26.6662 13.3342C26.2509 12.9189 25.6877 12.6856 25.1004 12.6856V13.6856ZM25.959 14.0413L25.2519 14.7484C25.2921 14.7886 25.3147 14.8431 25.3147 14.8999H26.3147H27.3147C27.3147 14.3127 27.0814 13.7495 26.6662 13.3342L25.959 14.0413ZM26.3147 14.8999H25.3147C25.3147 14.9568 25.2921 15.0113 25.2519 15.0515L25.959 15.7586L26.6662 16.4657C27.0814 16.0504 27.3147 15.4872 27.3147 14.8999H26.3147ZM25.959 15.7586L25.2519 15.0515C25.2118 15.0916 25.1573 15.1142 25.1004 15.1142V16.1142V17.1142C25.6877 17.1142 26.2509 16.8809 26.6662 16.4657L25.959 15.7586ZM25.1004 16.1142V15.1142C25.0436 15.1142 24.9891 15.0916 24.9489 15.0515L24.2418 15.7586L23.5347 16.4657C23.9499 16.8809 24.5132 17.1142 25.1004 17.1142V16.1142ZM24.2418 15.7586L24.9489 15.0515C24.9087 15.0113 24.8861 14.9568 24.8861 14.8999H23.8861H22.8861C22.8861 15.4872 23.1194 16.0504 23.5347 16.4657L24.2418 15.7586ZM23.8861 14.8999H24.8861C24.8861 14.8431 24.9087 14.7886 24.9489 14.7484L24.2418 14.0413L23.5347 13.3342C23.1194 13.7495 22.8861 14.3127 22.8861 14.8999H23.8861ZM24.2418 14.0413L24.9489 14.7484C24.9891 14.7082 25.0436 14.6856 25.1004 14.6856V13.6856V12.6856C24.5132 12.6856 23.9499 12.9189 23.5347 13.3342L24.2418 14.0413ZM20.0004 15.1428V16.1428C21.0234 16.1428 22.0045 16.5492 22.7278 17.2725L23.4349 16.5654L24.142 15.8583C23.0436 14.7599 21.5538 14.1428 20.0004 14.1428V15.1428ZM23.4349 16.5654L22.7278 17.2725C23.4512 17.9959 23.8576 18.977 23.8576 19.9999H24.8576H25.8576C25.8576 18.4465 25.2405 16.9567 24.142 15.8583L23.4349 16.5654ZM24.8576 19.9999H23.8576C23.8576 21.0229 23.4512 22.004 22.7278 22.7273L23.4349 23.4344L24.142 24.1416C25.2405 23.0431 25.8576 21.5533 25.8576 19.9999H24.8576ZM23.4349 23.4344L22.7278 22.7273C22.0045 23.4507 21.0234 23.8571 20.0004 23.8571V24.8571V25.8571C21.5538 25.8571 23.0436 25.24 24.142 24.1416L23.4349 23.4344ZM20.0004 24.8571V23.8571C18.9774 23.8571 17.9964 23.4507 17.273 22.7273L16.5659 23.4344L15.8588 24.1416C16.9572 25.24 18.447 25.8571 20.0004 25.8571V24.8571ZM16.5659 23.4344L17.273 22.7273C16.5497 22.004 16.1433 21.0229 16.1433 19.9999H15.1433H14.1433C14.1433 21.5533 14.7604 23.0431 15.8588 24.1416L16.5659 23.4344ZM15.1433 19.9999H16.1433C16.1433 18.977 16.5497 17.9959 17.273 17.2725L16.5659 16.5654L15.8588 15.8583C14.7604 16.9567 14.1433 18.4465 14.1433 19.9999H15.1433ZM16.5659 16.5654L17.273 17.2725C17.9964 16.5492 18.9774 16.1428 20.0004 16.1428V15.1428V14.1428C18.447 14.1428 16.9572 14.7599 15.8588 15.8583L16.5659 16.5654ZM20.0004 17.0856V16.0856C18.9623 16.0856 17.9667 16.498 17.2326 17.2321L17.9397 17.9392L18.6468 18.6463C19.0058 18.2873 19.4927 18.0856 20.0004 18.0856V17.0856ZM17.9397 17.9392L17.2326 17.2321C16.4985 17.9662 16.0861 18.9618 16.0861 19.9999H17.0861H18.0861C18.0861 19.4922 18.2878 19.0053 18.6468 18.6463L17.9397 17.9392ZM17.0861 19.9999H16.0861C16.0861 21.0381 16.4985 22.0337 17.2326 22.7677L17.9397 22.0606L18.6468 21.3535C18.2878 20.9945 18.0861 20.5076 18.0861 19.9999H17.0861ZM17.9397 22.0606L17.2326 22.7677C17.9667 23.5018 18.9623 23.9142 20.0004 23.9142V22.9142V21.9142C19.4927 21.9142 19.0058 21.7125 18.6468 21.3535L17.9397 22.0606ZM20.0004 22.9142V23.9142C21.0386 23.9142 22.0342 23.5018 22.7682 22.7677L22.0611 22.0606L21.354 21.3535C20.995 21.7125 20.5081 21.9142 20.0004 21.9142V22.9142ZM22.0611 22.0606L22.7682 22.7677C23.5023 22.0337 23.9147 21.0381 23.9147 19.9999H22.9147H21.9147C21.9147 20.5076 21.713 20.9945 21.354 21.3535L22.0611 22.0606ZM22.9147 19.9999H23.9147C23.9147 18.9618 23.5023 17.9662 22.7682 17.2321L22.0611 17.9392L21.354 18.6463C21.713 19.0053 21.9147 19.4922 21.9147 19.9999H22.9147ZM22.0611 17.9392L22.7682 17.2321C22.0342 16.498 21.0386 16.0856 20.0004 16.0856V17.0856V18.0856C20.5081 18.0856 20.995 18.2873 21.354 18.6463L22.0611 17.9392Z" fill="#FEFEFE" mask="url(#path-2-inside-1_103_1114)"/>
</svg>
