<svg width="40" height="40" viewBox="0 0 40 40" fill="none" xmlns="http://www.w3.org/2000/svg">
<rect width="40" height="40" rx="20" fill="#200164"/>
<path d="M21.0798 29.7142H16.7623V16.7618H21.0798V18.9206C21.5343 18.3423 22.1111 17.8718 22.7689 17.5428C23.4268 17.2138 24.1492 17.0345 24.8845 17.0176C26.1705 17.0248 27.4011 17.5416 28.3066 18.4547C29.212 19.3679 29.7184 20.6029 29.7147 21.8888V29.7142H25.3972V22.4285C25.3137 21.8452 25.0223 21.3117 24.5767 20.9261C24.1311 20.5406 23.5612 20.329 22.9719 20.3302C22.7082 20.3386 22.4488 20.4001 22.2095 20.5111C21.9701 20.6221 21.7556 20.7804 21.5789 20.9763C21.4022 21.1723 21.2669 21.4019 21.1811 21.6515C21.0954 21.901 21.0609 22.1653 21.0798 22.4285V29.7142ZM14.6036 29.7142H10.2861V16.7618H14.6036V29.7142ZM12.4449 14.6031C11.8723 14.6031 11.3232 14.3757 10.9184 13.9708C10.5136 13.566 10.2861 13.0169 10.2861 12.4444C10.2861 11.8718 10.5136 11.3228 10.9184 10.9179C11.3232 10.5131 11.8723 10.2856 12.4449 10.2856C13.0174 10.2856 13.5665 10.5131 13.9713 10.9179C14.3762 11.3228 14.6036 11.8718 14.6036 12.4444C14.6036 13.0169 14.3762 13.566 13.9713 13.9708C13.5665 14.3757 13.0174 14.6031 12.4449 14.6031Z" fill="#FEFEFE"/>
</svg>
