<svg width="19" height="19" viewBox="0 0 19 19" fill="none" xmlns="http://www.w3.org/2000/svg">
<path d="M9.49967 1.58337C6.43592 1.58337 3.95801 4.06129 3.95801 7.12504C3.95801 11.2813 9.49967 17.4167 9.49967 17.4167C9.49967 17.4167 15.0413 11.2813 15.0413 7.12504C15.0413 4.06129 12.5634 1.58337 9.49967 1.58337ZM9.49967 9.10421C8.97477 9.10421 8.47136 8.89569 8.10019 8.52452C7.72903 8.15336 7.52051 7.64995 7.52051 7.12504C7.52051 6.60013 7.72903 6.09672 8.10019 5.72556C8.47136 5.35439 8.97477 5.14587 9.49967 5.14587C10.0246 5.14587 10.528 5.35439 10.8992 5.72556C11.2703 6.09672 11.4788 6.60013 11.4788 7.12504C11.4788 7.64995 11.2703 8.15336 10.8992 8.52452C10.528 8.89569 10.0246 9.10421 9.49967 9.10421Z" fill="#999999"/>
</svg>
