<svg width="19" height="19" viewBox="0 0 19 19" fill="none" xmlns="http://www.w3.org/2000/svg">
<path d="M3.16634 15.8333C2.73092 15.8333 2.35831 15.6784 2.04851 15.3686C1.7387 15.0588 1.58354 14.6859 1.58301 14.25V4.74996C1.58301 4.31454 1.73817 3.94193 2.04851 3.63213C2.35884 3.32232 2.73145 3.16715 3.16634 3.16663H15.833C16.2684 3.16663 16.6413 3.32179 16.9516 3.63213C17.262 3.94246 17.4169 4.31507 17.4163 4.74996V14.25C17.4163 14.6854 17.2614 15.0583 16.9516 15.3686C16.6418 15.6789 16.269 15.8338 15.833 15.8333H3.16634ZM9.49967 10.2916L15.833 6.33329V4.74996L9.49967 8.70829L3.16634 4.74996V6.33329L9.49967 10.2916Z" fill="#999999"/>
</svg>
