<svg width="50" height="50" viewBox="0 0 50 50" fill="none" xmlns="http://www.w3.org/2000/svg">
<path d="M12.4997 41.6667C11.3538 41.6667 10.3733 41.2591 9.55801 40.4438C8.74273 39.6285 8.3344 38.6473 8.33301 37.5001C8.33162 36.3528 8.73996 35.3723 9.55801 34.5584C10.3761 33.7445 11.3566 33.3362 12.4997 33.3334C13.6427 33.3306 14.624 33.7389 15.4434 34.5584C16.2629 35.3778 16.6705 36.3584 16.6663 37.5001C16.6622 38.6417 16.2545 39.623 15.4434 40.4438C14.6323 41.2646 13.6511 41.6723 12.4997 41.6667ZM12.4997 29.1667C11.3538 29.1667 10.3733 28.7591 9.55801 27.9438C8.74273 27.1285 8.3344 26.1473 8.33301 25.0001C8.33162 23.8528 8.73996 22.8723 9.55801 22.0584C10.3761 21.2445 11.3566 20.8362 12.4997 20.8334C13.6427 20.8306 14.624 21.2389 15.4434 22.0584C16.2629 22.8778 16.6705 23.8584 16.6663 25.0001C16.6622 26.1417 16.2545 27.123 15.4434 27.9438C14.6323 28.7646 13.6511 29.1723 12.4997 29.1667ZM12.4997 16.6667C11.3538 16.6667 10.3733 16.2591 9.55801 15.4438C8.74273 14.6285 8.3344 13.6473 8.33301 12.5001C8.33162 11.3528 8.73996 10.3723 9.55801 9.55839C10.3761 8.7445 11.3566 8.33617 12.4997 8.33339C13.6427 8.33061 14.624 8.73894 15.4434 9.55839C16.2629 10.3778 16.6705 11.3584 16.6663 12.5001C16.6622 13.6417 16.2545 14.623 15.4434 15.4438C14.6323 16.2646 13.6511 16.6723 12.4997 16.6667ZM24.9997 16.6667C23.8538 16.6667 22.8733 16.2591 22.058 15.4438C21.2427 14.6285 20.8344 13.6473 20.833 12.5001C20.8316 11.3528 21.24 10.3723 22.058 9.55839C22.8761 8.7445 23.8566 8.33617 24.9997 8.33339C26.1427 8.33061 27.124 8.73894 27.9434 9.55839C28.7629 10.3778 29.1705 11.3584 29.1663 12.5001C29.1622 13.6417 28.7545 14.623 27.9434 15.4438C27.1323 16.2646 26.1511 16.6723 24.9997 16.6667ZM37.4997 16.6667C36.3538 16.6667 35.3733 16.2591 34.558 15.4438C33.7427 14.6285 33.3344 13.6473 33.333 12.5001C33.3316 11.3528 33.74 10.3723 34.558 9.55839C35.3761 8.7445 36.3566 8.33617 37.4997 8.33339C38.6427 8.33061 39.624 8.73894 40.4434 9.55839C41.2629 10.3778 41.6705 11.3584 41.6663 12.5001C41.6622 13.6417 41.2545 14.623 40.4434 15.4438C39.6323 16.2646 38.6511 16.6723 37.4997 16.6667ZM24.9997 29.1667C23.8538 29.1667 22.8733 28.7591 22.058 27.9438C21.2427 27.1285 20.8344 26.1473 20.833 25.0001C20.8316 23.8528 21.24 22.8723 22.058 22.0584C22.8761 21.2445 23.8566 20.8362 24.9997 20.8334C26.1427 20.8306 27.124 21.2389 27.9434 22.0584C28.7629 22.8778 29.1705 23.8584 29.1663 25.0001C29.1622 26.1417 28.7545 27.123 27.9434 27.9438C27.1323 28.7646 26.1511 29.1723 24.9997 29.1667ZM27.083 41.6667V35.2605L38.5934 23.8021C38.9059 23.4896 39.2531 23.2639 39.6351 23.1251C40.017 22.9862 40.399 22.9167 40.7809 22.9167C41.1976 22.9167 41.5969 22.9952 41.9788 23.1521C42.3608 23.3091 42.708 23.5431 43.0205 23.8542L44.9476 25.7813C45.2254 26.0938 45.4427 26.441 45.5997 26.823C45.7566 27.2049 45.8344 27.5869 45.833 27.9688C45.8316 28.3507 45.7622 28.7417 45.6247 29.1417C45.4872 29.5417 45.2615 29.8973 44.9476 30.2084L33.4893 41.6667H27.083ZM40.7809 30.0001L42.708 27.9688L40.7809 26.0417L38.8018 28.0209L40.7809 30.0001Z" fill="#F8393B"/>
</svg>
