<svg width="50" height="50" viewBox="0 0 50 50" fill="none" xmlns="http://www.w3.org/2000/svg">
<path d="M6.24967 41.3333C5.10384 41.3333 4.12329 40.9257 3.30801 40.1104C2.49273 39.2951 2.0844 38.3139 2.08301 37.1667V16.3333C2.08301 15.7431 2.28301 15.2486 2.68301 14.85C3.08301 14.4514 3.57745 14.2514 4.16634 14.25C4.75523 14.2486 5.25037 14.4486 5.65176 14.85C6.05315 15.2514 6.25245 15.7458 6.24967 16.3333V37.1667H39.583C40.1733 37.1667 40.6684 37.3667 41.0684 37.7667C41.4684 38.1667 41.6677 38.6611 41.6663 39.25C41.665 39.8389 41.465 40.334 41.0663 40.7354C40.6677 41.1368 40.1733 41.3361 39.583 41.3333H6.24967ZM14.583 33C13.4372 33 12.4566 32.5924 11.6413 31.7771C10.8261 30.9618 10.4177 29.9806 10.4163 28.8333V12.1667C10.4163 11.0208 10.8247 10.0403 11.6413 9.225C12.458 8.40972 13.4386 8.00139 14.583 8H43.7497C44.8955 8 45.8768 8.40833 46.6934 9.225C47.5101 10.0417 47.9177 11.0222 47.9163 12.1667V28.8333C47.9163 29.9792 47.5087 30.9604 46.6934 31.7771C45.8781 32.5938 44.8969 33.0014 43.7497 33H14.583ZM18.7497 28.8333C18.7497 27.6875 18.342 26.7069 17.5268 25.8917C16.7115 25.0764 15.7302 24.6681 14.583 24.6667V28.8333H18.7497ZM39.583 28.8333H43.7497V24.6667C42.6038 24.6667 41.6233 25.075 40.808 25.8917C39.9927 26.7083 39.5844 27.6889 39.583 28.8333ZM29.1663 26.75C30.9025 26.75 32.3781 26.1424 33.5934 24.9271C34.8087 23.7118 35.4163 22.2361 35.4163 20.5C35.4163 18.7639 34.8087 17.2882 33.5934 16.0729C32.3781 14.8576 30.9025 14.25 29.1663 14.25C27.4302 14.25 25.9545 14.8576 24.7393 16.0729C23.524 17.2882 22.9163 18.7639 22.9163 20.5C22.9163 22.2361 23.524 23.7118 24.7393 24.9271C25.9545 26.1424 27.4302 26.75 29.1663 26.75ZM14.583 16.3333C15.7288 16.3333 16.7101 15.9257 17.5268 15.1104C18.3434 14.2951 18.7511 13.3139 18.7497 12.1667H14.583V16.3333ZM43.7497 16.3333V12.1667H39.583C39.583 13.3125 39.9913 14.2937 40.808 15.1104C41.6247 15.9271 42.6052 16.3347 43.7497 16.3333Z" fill="#F8393B"/>
</svg>
