<svg width="50" height="50" viewBox="0 0 50 50" fill="none" xmlns="http://www.w3.org/2000/svg">
<path d="M33.75 16.375H22.25V13.5H33.75V16.375ZM22.25 25H33.75V27.875H22.25V25ZM25.1924 45.125L28.0674 48H5V2H39.5V30.8174L36.625 33.6924V4.875H7.875V45.125H25.1924ZM20.3857 11.6357L15.0625 16.959L11.1768 13.0732L13.1982 11.0518L15.0625 12.916L18.3643 9.61426L20.3857 11.6357ZM20.3857 23.1357L15.0625 28.459L11.1768 24.5732L13.1982 22.5518L15.0625 24.416L18.3643 21.1143L20.3857 23.1357ZM15.0625 35.916L18.3643 32.6143L20.3857 34.6357L15.0625 39.959L11.1768 36.0732L13.1982 34.0518L15.0625 35.916ZM44.8232 34.6357L32.3125 47.1689L26.2705 41.1045L28.292 39.083L32.3125 43.0811L42.8018 32.6143L44.8232 34.6357Z" fill="#F8393B"/>
</svg>
