<svg width="19" height="19" viewBox="0 0 19 19" fill="none" xmlns="http://www.w3.org/2000/svg">
<path d="M15.0417 9.46045C15.0417 7.9167 14.5039 6.60702 13.4283 5.53141C12.3532 4.45632 11.0437 3.91878 9.5 3.91878V2.33545C10.4896 2.33545 11.4166 2.52334 12.2811 2.89912C13.1451 3.27542 13.8972 3.78367 14.5374 4.42387C15.177 5.06353 15.685 5.81562 16.0613 6.68012C16.4371 7.54409 16.625 8.47087 16.625 9.46045H15.0417ZM11.875 9.46045C11.875 8.80073 11.6441 8.23996 11.1823 7.77816C10.7205 7.31635 10.1597 7.08545 9.5 7.08545V5.50212C10.5951 5.50212 11.5288 5.88792 12.3009 6.65953C13.0725 7.43167 13.4583 8.36531 13.4583 9.46045H11.875ZM15.7938 16.625C14.0917 16.625 12.4326 16.249 10.8165 15.4969C9.19996 14.7448 7.76836 13.742 6.52175 12.4886C5.27461 11.2351 4.27183 9.80007 3.51342 8.18349C2.75447 6.56744 2.375 4.90837 2.375 3.20628V2.79066C2.375 2.64552 2.38819 2.50698 2.41458 2.37503H7.04583L7.77812 6.35316L5.52187 8.6292C6.07604 9.5792 6.77218 10.4698 7.61029 11.3011C8.44788 12.1323 9.36806 12.8514 10.3708 13.4584L12.6667 11.1625L16.625 11.9542V16.5854C16.4931 16.5986 16.3545 16.6087 16.2094 16.6155C16.0642 16.6219 15.9257 16.625 15.7938 16.625Z" fill="#999999"/>
</svg>
