<svg width="40" height="40" viewBox="0 0 40 40" fill="none" xmlns="http://www.w3.org/2000/svg">
<path d="M16.667 6.66663H23.3336C29.6186 6.66663 32.7619 6.66663 34.7136 8.61996C36.1203 10.025 36.5136 12.0483 36.6236 15.4166H3.37695C3.48695 12.0483 3.88029 10.025 5.28695 8.61996C7.23862 6.66663 10.382 6.66663 16.667 6.66663Z" fill="#200164"/>
<path fill-rule="evenodd" clip-rule="evenodd" d="M36.6663 21.3633L35.9847 20.6816C35.6365 20.3334 35.2231 20.0572 34.7681 19.8687C34.3131 19.6803 33.8255 19.5833 33.333 19.5833C32.8405 19.5833 32.3529 19.6803 31.8979 19.8687C31.443 20.0572 31.0296 20.3334 30.6813 20.6816L29.3463 22.0166C29.0372 21.1945 28.4495 20.5069 27.6855 20.0736C26.9215 19.6403 26.0297 19.4888 25.1655 19.6454C24.3013 19.8021 23.5194 20.257 22.9561 20.9309C22.3928 21.6048 22.0839 22.455 22.083 23.3333V26.2733C21.3812 26.3518 20.7159 26.6268 20.1635 27.0667C19.6112 27.5066 19.1942 28.0936 18.9607 28.76C18.7272 29.4264 18.6866 30.1452 18.8436 30.8337C19.0005 31.5221 19.3487 32.1523 19.848 32.6516L20.5297 33.3333H16.6663C10.3813 33.3333 7.23801 33.3333 5.28634 31.38C3.33301 29.4283 3.33301 26.285 3.33301 20C3.33301 19.2633 3.33301 18.57 3.33634 17.9166H36.663C36.6663 18.57 36.6663 19.2633 36.6663 20V21.3633ZM9.99967 25.4166C9.66815 25.4166 9.35021 25.5483 9.11579 25.7827C8.88137 26.0172 8.74967 26.3351 8.74967 26.6666C8.74967 26.9981 8.88137 27.3161 9.11579 27.5505C9.35021 27.7849 9.66815 27.9166 9.99967 27.9166H16.6663C16.9979 27.9166 17.3158 27.7849 17.5502 27.5505C17.7846 27.3161 17.9163 26.9981 17.9163 26.6666C17.9163 26.3351 17.7846 26.0172 17.5502 25.7827C17.3158 25.5483 16.9979 25.4166 16.6663 25.4166H9.99967Z" fill="#200164"/>
<path fill-rule="evenodd" clip-rule="evenodd" d="M25.8333 22.0834C26.1648 22.0834 26.4827 22.2151 26.7171 22.4495C26.9516 22.6839 27.0833 23.0019 27.0833 23.3334V30.3167L28.2833 29.1167C28.3977 28.9939 28.5357 28.8954 28.689 28.8271C28.8424 28.7588 29.0079 28.722 29.1757 28.7191C29.3436 28.7161 29.5103 28.747 29.6659 28.8098C29.8216 28.8727 29.963 28.9663 30.0817 29.085C30.2004 29.2037 30.2939 29.3451 30.3568 29.5007C30.4197 29.6564 30.4505 29.8231 30.4476 29.9909C30.4446 30.1587 30.4079 30.3243 30.3396 30.4776C30.2712 30.6309 30.1727 30.7689 30.0499 30.8834L26.7166 34.2167C26.4822 34.4508 26.1645 34.5823 25.8333 34.5823C25.502 34.5823 25.1843 34.4508 24.9499 34.2167L21.6166 30.8834C21.4938 30.7689 21.3953 30.6309 21.327 30.4776C21.2586 30.3243 21.2219 30.1587 21.2189 29.9909C21.216 29.8231 21.2469 29.6564 21.3097 29.5007C21.3726 29.3451 21.4662 29.2037 21.5849 29.085C21.7036 28.9663 21.845 28.8727 22.0006 28.8098C22.1562 28.747 22.323 28.7161 22.4908 28.7191C22.6586 28.722 22.8242 28.7588 22.9775 28.8271C23.1308 28.8954 23.2688 28.9939 23.3833 29.1167L24.5833 30.3167V23.3334C24.5833 23.0019 24.715 22.6839 24.9494 22.4495C25.1838 22.2151 25.5017 22.0834 25.8333 22.0834ZM32.4499 22.45C32.6843 22.216 33.002 22.0845 33.3333 22.0845C33.6645 22.0845 33.9822 22.216 34.2166 22.45L37.5499 25.7834C37.6727 25.8978 37.7712 26.0358 37.8396 26.1891C37.9079 26.3425 37.9446 26.508 37.9476 26.6758C37.9505 26.8437 37.9197 27.0104 37.8568 27.166C37.7939 27.3217 37.7004 27.4631 37.5817 27.5818C37.463 27.7005 37.3216 27.794 37.1659 27.8569C37.0103 27.9198 36.8436 27.9507 36.6757 27.9477C36.5079 27.9447 36.3424 27.908 36.189 27.8397C36.0357 27.7714 35.8977 27.6729 35.7833 27.55L34.5833 26.35V33.3334C34.5833 33.6649 34.4516 33.9828 34.2171 34.2173C33.9827 34.4517 33.6648 34.5834 33.3333 34.5834C33.0017 34.5834 32.6838 34.4517 32.4494 34.2173C32.215 33.9828 32.0833 33.6649 32.0833 33.3334V26.35L30.8833 27.55C30.7688 27.6729 30.6308 27.7714 30.4775 27.8397C30.3242 27.908 30.1586 27.9447 29.9908 27.9477C29.823 27.9507 29.6562 27.9198 29.5006 27.8569C29.345 27.794 29.2036 27.7005 29.0849 27.5818C28.9662 27.4631 28.8726 27.3217 28.8097 27.166C28.7469 27.0104 28.716 26.8437 28.7189 26.6758C28.7219 26.508 28.7586 26.3425 28.827 26.1891C28.8953 26.0358 28.9938 25.8978 29.1166 25.7834L32.4499 22.45Z" fill="#200164"/>
</svg>
