<svg width="40" height="40" viewBox="0 0 40 40" fill="none" xmlns="http://www.w3.org/2000/svg">
<path fill-rule="evenodd" clip-rule="evenodd" d="M9.86 4.61994C16.5945 3.78896 23.4055 3.78896 30.14 4.61994C31.2112 4.75804 32.1948 5.28303 32.9058 6.09603C33.6168 6.90903 34.0059 7.95394 34 9.03394V34.4999C34 34.7537 33.9357 35.0033 33.813 35.2254C33.6903 35.4475 33.5133 35.6348 33.2985 35.7699C33.0837 35.905 32.8382 35.9833 32.5848 35.9977C32.3315 36.012 32.0787 35.9619 31.85 35.8519L26.25 33.1639L20.65 35.8519C20.4472 35.9495 20.225 36.0001 20 36.0001C19.775 36.0001 19.5528 35.9495 19.35 35.8519L13.75 33.1639L8.15 35.8519C7.92133 35.9619 7.6685 36.012 7.41517 35.9977C7.16184 35.9833 6.9163 35.905 6.7015 35.7699C6.48671 35.6348 6.30969 35.4475 6.187 35.2254C6.06431 35.0033 5.99997 34.7537 6 34.4999V9.03394C6 6.82794 7.612 4.89794 9.86 4.61994ZM19.504 12.6139C19.6551 12.4834 19.7785 12.3241 19.8672 12.1452C19.9559 11.9664 20.008 11.7716 20.0204 11.5724C20.0329 11.3731 20.0054 11.1734 19.9397 10.9849C19.8739 10.7964 19.7712 10.623 19.6376 10.4747C19.5039 10.3264 19.342 10.2063 19.1614 10.1214C18.9807 10.0364 18.7849 9.98845 18.5854 9.98018C18.386 9.97192 18.1869 10.0036 17.9998 10.0732C17.8127 10.1429 17.6415 10.2492 17.496 10.3859L12.496 14.8859C12.34 15.0266 12.2153 15.1984 12.13 15.3903C12.0446 15.5822 12.0005 15.7899 12.0005 15.9999C12.0005 16.21 12.0446 16.4177 12.13 16.6096C12.2153 16.8015 12.34 16.9733 12.496 17.1139L17.496 21.6139C17.7929 21.8705 18.1785 22.0004 18.5701 21.976C18.9618 21.9515 19.3282 21.7746 19.5909 21.4831C19.8536 21.1916 19.9916 20.8088 19.9754 20.4168C19.9591 20.0248 19.7899 19.6547 19.504 19.3859L17.408 17.4999H21.25C22.2446 17.4999 23.1984 17.895 23.9017 18.5983C24.6049 19.3016 25 20.2554 25 21.2499C25 22.2445 24.6049 23.1983 23.9017 23.9016C23.1984 24.6049 22.2446 24.9999 21.25 24.9999C20.8522 24.9999 20.4706 25.158 20.1893 25.4393C19.908 25.7206 19.75 26.1021 19.75 26.4999C19.75 26.8978 19.908 27.2793 20.1893 27.5606C20.4706 27.8419 20.8522 27.9999 21.25 27.9999C23.0402 27.9999 24.7571 27.2888 26.023 26.0229C27.2888 24.757 28 23.0402 28 21.2499C28 19.4597 27.2888 17.7428 26.023 16.477C24.7571 15.2111 23.0402 14.4999 21.25 14.4999H17.41L19.504 12.6139Z" fill="#200164"/>
</svg>
