<svg width="40" height="40" viewBox="0 0 40 40" fill="none" xmlns="http://www.w3.org/2000/svg">
<path d="M9.73551 3.33337L15.5688 7.50004H31.3305L31.2955 7.47504L25.3738 3.58004C25.1322 3.42112 24.8497 3.33546 24.5605 3.33337H9.73551ZM8.33301 4.33504V7.61671C8.33301 7.92837 8.41467 8.23504 8.56967 8.50004L11.178 12.9709C11.4238 13.3934 11.9597 13.4909 12.323 13.1792L13.9713 11.7667C14.3405 11.45 14.5547 10.9717 14.5547 10.465V8.77921L8.33301 4.33504ZM8.33301 11.2392V31.8142C8.33301 32.1042 8.47301 32.3725 8.70384 32.525L10.6663 33.8159V14.6917C10.3326 14.4823 10.0551 14.1945 9.85801 13.8534L8.33301 11.2392ZM12.2222 34.8392L14.5555 36.3742V13.4009L13.2947 14.4809C12.9898 14.7454 12.6193 14.923 12.2222 14.995V34.8392ZM20.7772 18.3334C20.7772 17.8734 21.1255 17.5 21.5555 17.5H26.2222C26.6513 17.5 26.9997 17.8734 26.9997 18.3334C26.9997 18.7934 26.6513 19.1667 26.2222 19.1667H21.5555C21.1255 19.1667 20.7772 18.7934 20.7772 18.3334ZM22.333 20.8334C22.333 20.3734 22.6813 20 23.1105 20H24.6663C25.0955 20 25.4438 20.3734 25.4438 20.8334C25.4438 21.2934 25.0955 21.6667 24.6663 21.6667H23.1105C22.6813 21.6667 22.333 21.2934 22.333 20.8334Z" fill="#200164"/>
<path fill-rule="evenodd" clip-rule="evenodd" d="M16.1104 36.6667H30.8887C31.3179 36.6667 31.6662 36.2934 31.6662 35.8334V9.16675H16.1104V36.6667ZM23.8887 25.0001C26.8954 25.0001 29.3329 22.3884 29.3329 19.1667C29.3329 15.9451 26.8954 13.3334 23.8887 13.3334C20.882 13.3334 18.4437 15.9451 18.4437 19.1667C18.4437 22.3884 20.8812 25.0001 23.8887 25.0001Z" fill="#200164"/>
</svg>
