<svg width="40" height="40" viewBox="0 0 40 40" fill="none" xmlns="http://www.w3.org/2000/svg">
<path d="M16.667 6.66663H23.3337V13.3333H16.667V6.66663ZM6.66699 26.6666H13.3337V33.3333H6.66699V26.6666ZM6.66699 16.6666H13.3337V23.3333H6.66699V16.6666ZM6.66699 6.66663H13.3337V13.3333H6.66699V6.66663ZM26.667 6.66663H33.3337V13.3333H26.667V6.66663ZM18.3337 29.7666V33.3333H21.8337L31.8003 23.3833L28.267 19.85L18.3337 29.7666ZM23.3337 20.05V16.6666H16.667V23.3333H20.0503L23.3337 20.05ZM34.7503 19.2666L32.4003 16.9166C32.067 16.5833 31.5503 16.5833 31.217 16.9166L29.4503 18.6833L32.9837 22.2166L34.7503 20.45C35.0837 20.1166 35.0837 19.6 34.7503 19.2666Z" fill="white"/>
</svg>
