<svg width="40" height="40" viewBox="0 0 40 40" fill="none" xmlns="http://www.w3.org/2000/svg">
<path d="M20.3003 33.3334C20.6003 34.5334 21.0837 35.65 21.7337 36.6667H10.0003C8.15033 36.6667 6.66699 35.1834 6.66699 33.3334V6.66671C6.66699 5.78265 7.01818 4.93481 7.6433 4.30968C8.26842 3.68456 9.11627 3.33337 10.0003 3.33337H30.0003C30.8844 3.33337 31.7322 3.68456 32.3573 4.30968C32.9825 4.93481 33.3337 5.78265 33.3337 6.66671V20.3C32.5003 20.1167 31.667 20 30.8337 20C30.5503 20 30.2837 20 30.0003 20.05V6.66671H21.667V20L17.5003 16.25L13.3337 20V6.66671H10.0003V33.3334H20.3003ZM38.3337 30.8334C38.3337 35 35.0003 38.3334 30.8337 38.3334C26.667 38.3334 23.3337 35 23.3337 30.8334C23.3337 26.6667 26.667 23.3334 30.8337 23.3334C35.0003 23.3334 38.3337 26.6667 38.3337 30.8334ZM33.3337 35.1334L26.5337 28.3334C26.0837 29.0334 25.8337 29.9 25.8337 30.8334C25.8337 33.6 28.067 35.8334 30.8337 35.8334C31.767 35.8334 32.6337 35.5834 33.3337 35.1334ZM35.8337 30.8334C35.8337 28.0667 33.6003 25.8334 30.8337 25.8334C29.9003 25.8334 29.0337 26.0834 28.3337 26.5334L35.1337 33.3334C35.5837 32.6334 35.8337 31.7667 35.8337 30.8334Z" fill="#200164"/>
</svg>
