<svg width="40" height="40" viewBox="0 0 40 40" fill="none" xmlns="http://www.w3.org/2000/svg">
<rect width="40" height="40" rx="20" fill="#200164"/>
<path d="M29.7147 14.4536C28.9996 14.7831 28.2288 14.9995 27.4301 15.1031C28.2473 14.6042 28.8789 13.8136 29.1761 12.8631C28.4052 13.3336 27.5508 13.6631 26.65 13.8513C25.9163 13.0419 24.8854 12.5713 23.7153 12.5713C21.5328 12.5713 19.7497 14.3783 19.7497 16.6089C19.7497 16.9289 19.7868 17.2395 19.8518 17.5313C16.5456 17.3619 13.6016 15.7525 11.642 13.3148C11.2984 13.9078 11.1034 14.6042 11.1034 15.3383C11.1034 16.7407 11.7999 17.9831 12.8772 18.6889C12.2178 18.6889 11.6049 18.5007 11.0662 18.2183V18.2466C11.0662 20.2042 12.4407 21.8419 14.261 22.2089C13.6766 22.371 13.0631 22.3936 12.4686 22.2748C12.7208 23.0772 13.2148 23.7792 13.8812 24.2823C14.5475 24.7854 15.3527 25.0642 16.1834 25.0795C14.7752 26.2093 13.0295 26.8201 11.2334 26.8113C10.9177 26.8113 10.6019 26.7925 10.2861 26.7548C12.0507 27.9031 14.1496 28.5713 16.397 28.5713C23.7153 28.5713 27.7366 22.416 27.7366 17.0795C27.7366 16.9007 27.7366 16.7313 27.7273 16.5525C28.5074 15.9878 29.1761 15.2725 29.7147 14.4536Z" fill="#FEFEFE"/>
</svg>
